<mxfile modified="2021-04-04T19:15:24.889Z" host="app.diagrams.net" agent="5.0 (Windows NT 10.0; Win64; x64) AppleWebKit/537.36 (KHTML, like Gecko) Chrome/89.0.4389.114 Safari/537.36" etag="LH7aYApnXaE0B58WstKB" version="14.5.7" type="github">
  <diagram id="Ht1M8jgEwFfnCIfOTk4-" name="Page-1">
    <mxGraphModel dx="2899" dy="2621" grid="1" gridSize="10" guides="1" tooltips="1" connect="1" arrows="1" fold="1" page="1" pageScale="1" pageWidth="1169" pageHeight="827" math="0" shadow="0">
      <root>
        <mxCell id="0" />
        <mxCell id="1" parent="0" />
        <mxCell id="XpaET4Vomy34G-DI7WaO-2" value="" style="rounded=1;whiteSpace=wrap;html=1;" vertex="1" parent="1">
          <mxGeometry x="100" y="-1010" width="300" height="480" as="geometry" />
        </mxCell>
        <mxCell id="XpaET4Vomy34G-DI7WaO-3" value="" style="rounded=1;whiteSpace=wrap;html=1;" vertex="1" parent="1">
          <mxGeometry x="450" y="-740" width="300" height="480" as="geometry" />
        </mxCell>
        <mxCell id="XpaET4Vomy34G-DI7WaO-4" value="" style="rounded=1;whiteSpace=wrap;html=1;" vertex="1" parent="1">
          <mxGeometry x="800" y="-1010" width="300" height="480" as="geometry" />
        </mxCell>
        <mxCell id="XpaET4Vomy34G-DI7WaO-5" value="" style="rounded=1;whiteSpace=wrap;html=1;" vertex="1" parent="1">
          <mxGeometry x="320" y="-130" width="580" height="480" as="geometry" />
        </mxCell>
        <mxCell id="XpaET4Vomy34G-DI7WaO-7" value="" style="endArrow=classic;startArrow=classic;html=1;exitX=1;exitY=0.338;exitDx=0;exitDy=0;exitPerimeter=0;entryX=0.332;entryY=0.024;entryDx=0;entryDy=0;entryPerimeter=0;" edge="1" parent="1" source="XpaET4Vomy34G-DI7WaO-9" target="XpaET4Vomy34G-DI7WaO-11">
          <mxGeometry width="50" height="50" relative="1" as="geometry">
            <mxPoint x="400" y="-839" as="sourcePoint" />
            <mxPoint x="560" y="-740" as="targetPoint" />
            <Array as="points">
              <mxPoint x="560" y="-839" />
            </Array>
          </mxGeometry>
        </mxCell>
        <mxCell id="XpaET4Vomy34G-DI7WaO-8" value="" style="endArrow=classic;startArrow=classic;html=1;entryX=0.67;entryY=0.007;entryDx=0;entryDy=0;entryPerimeter=0;exitX=0.004;exitY=0.334;exitDx=0;exitDy=0;exitPerimeter=0;" edge="1" parent="1" source="XpaET4Vomy34G-DI7WaO-10" target="XpaET4Vomy34G-DI7WaO-11">
          <mxGeometry width="50" height="50" relative="1" as="geometry">
            <mxPoint x="510" y="-690" as="sourcePoint" />
            <mxPoint x="560" y="-740" as="targetPoint" />
            <Array as="points">
              <mxPoint x="638" y="-841" />
            </Array>
          </mxGeometry>
        </mxCell>
        <mxCell id="XpaET4Vomy34G-DI7WaO-9" value="" style="shape=process;whiteSpace=wrap;html=1;backgroundOutline=1;" vertex="1" parent="1">
          <mxGeometry x="135" y="-870" width="230" height="90" as="geometry" />
        </mxCell>
        <mxCell id="XpaET4Vomy34G-DI7WaO-10" value="" style="shape=process;whiteSpace=wrap;html=1;backgroundOutline=1;" vertex="1" parent="1">
          <mxGeometry x="835" y="-870" width="230" height="90" as="geometry" />
        </mxCell>
        <mxCell id="XpaET4Vomy34G-DI7WaO-11" value="" style="shape=process;whiteSpace=wrap;html=1;backgroundOutline=1;" vertex="1" parent="1">
          <mxGeometry x="485" y="-620" width="230" height="90" as="geometry" />
        </mxCell>
        <mxCell id="XpaET4Vomy34G-DI7WaO-47" style="edgeStyle=orthogonalEdgeStyle;rounded=0;orthogonalLoop=1;jettySize=auto;html=1;exitX=0.5;exitY=0;exitDx=0;exitDy=0;entryX=0.5;entryY=1;entryDx=0;entryDy=0;startArrow=block;startFill=1;endArrow=block;endFill=1;" edge="1" parent="1" source="XpaET4Vomy34G-DI7WaO-12" target="XpaET4Vomy34G-DI7WaO-9">
          <mxGeometry relative="1" as="geometry">
            <Array as="points">
              <mxPoint x="445" y="-40" />
              <mxPoint x="420" y="-40" />
              <mxPoint x="420" y="-400" />
              <mxPoint x="250" y="-400" />
            </Array>
          </mxGeometry>
        </mxCell>
        <mxCell id="XpaET4Vomy34G-DI7WaO-12" value="" style="shape=process;whiteSpace=wrap;html=1;backgroundOutline=1;" vertex="1" parent="1">
          <mxGeometry x="330" y="-20" width="230" height="90" as="geometry" />
        </mxCell>
        <mxCell id="XpaET4Vomy34G-DI7WaO-13" value="" style="shape=process;whiteSpace=wrap;html=1;backgroundOutline=1;" vertex="1" parent="1">
          <mxGeometry x="485" y="120" width="230" height="90" as="geometry" />
        </mxCell>
        <mxCell id="XpaET4Vomy34G-DI7WaO-14" value="" style="shape=process;whiteSpace=wrap;html=1;backgroundOutline=1;" vertex="1" parent="1">
          <mxGeometry x="485" y="250" width="230" height="90" as="geometry" />
        </mxCell>
        <mxCell id="XpaET4Vomy34G-DI7WaO-15" value="" style="shape=process;whiteSpace=wrap;html=1;backgroundOutline=1;" vertex="1" parent="1">
          <mxGeometry x="660" y="-20" width="230" height="90" as="geometry" />
        </mxCell>
        <mxCell id="XpaET4Vomy34G-DI7WaO-16" value="" style="rounded=1;whiteSpace=wrap;html=1;" vertex="1" parent="1">
          <mxGeometry x="450" y="600" width="300" height="480" as="geometry" />
        </mxCell>
        <mxCell id="XpaET4Vomy34G-DI7WaO-17" value="" style="shape=process;whiteSpace=wrap;html=1;backgroundOutline=1;" vertex="1" parent="1">
          <mxGeometry x="495" y="640" width="230" height="90" as="geometry" />
        </mxCell>
        <mxCell id="XpaET4Vomy34G-DI7WaO-18" value="" style="shape=process;whiteSpace=wrap;html=1;backgroundOutline=1;" vertex="1" parent="1">
          <mxGeometry x="485" y="830" width="230" height="90" as="geometry" />
        </mxCell>
        <mxCell id="XpaET4Vomy34G-DI7WaO-19" value="" style="shape=process;whiteSpace=wrap;html=1;backgroundOutline=1;" vertex="1" parent="1">
          <mxGeometry x="485" y="950" width="230" height="90" as="geometry" />
        </mxCell>
        <mxCell id="XpaET4Vomy34G-DI7WaO-22" value="" style="endArrow=none;startArrow=classic;html=1;entryX=0.376;entryY=1.006;entryDx=0;entryDy=0;endFill=0;entryPerimeter=0;" edge="1" parent="1" target="XpaET4Vomy34G-DI7WaO-14">
          <mxGeometry width="50" height="50" relative="1" as="geometry">
            <mxPoint x="-550" y="400" as="sourcePoint" />
            <mxPoint x="470" y="250" as="targetPoint" />
            <Array as="points">
              <mxPoint x="572" y="400" />
            </Array>
          </mxGeometry>
        </mxCell>
        <mxCell id="XpaET4Vomy34G-DI7WaO-25" value="" style="endArrow=classic;startArrow=classic;html=1;exitX=0.5;exitY=0;exitDx=0;exitDy=0;entryX=0.5;entryY=1;entryDx=0;entryDy=0;" edge="1" parent="1" source="XpaET4Vomy34G-DI7WaO-14" target="XpaET4Vomy34G-DI7WaO-13">
          <mxGeometry width="50" height="50" relative="1" as="geometry">
            <mxPoint x="410" y="210" as="sourcePoint" />
            <mxPoint x="460" y="160" as="targetPoint" />
          </mxGeometry>
        </mxCell>
        <mxCell id="XpaET4Vomy34G-DI7WaO-29" value="&lt;span style=&quot;font-size: 24px&quot;&gt;Компаньон LE&lt;/span&gt;" style="text;html=1;strokeColor=none;fillColor=none;align=center;verticalAlign=middle;whiteSpace=wrap;rounded=0;" vertex="1" parent="1">
          <mxGeometry x="515" y="145" width="170" height="40" as="geometry" />
        </mxCell>
        <mxCell id="XpaET4Vomy34G-DI7WaO-30" value="" style="endArrow=classic;startArrow=classic;html=1;exitX=0;exitY=0.5;exitDx=0;exitDy=0;entryX=0.5;entryY=1;entryDx=0;entryDy=0;" edge="1" parent="1" source="XpaET4Vomy34G-DI7WaO-14" target="XpaET4Vomy34G-DI7WaO-12">
          <mxGeometry width="50" height="50" relative="1" as="geometry">
            <mxPoint x="500" y="200" as="sourcePoint" />
            <mxPoint x="550" y="150" as="targetPoint" />
            <Array as="points">
              <mxPoint x="445" y="295" />
            </Array>
          </mxGeometry>
        </mxCell>
        <mxCell id="XpaET4Vomy34G-DI7WaO-31" value="" style="endArrow=classic;startArrow=classic;html=1;exitX=1;exitY=0.5;exitDx=0;exitDy=0;entryX=0.5;entryY=1;entryDx=0;entryDy=0;" edge="1" parent="1" source="XpaET4Vomy34G-DI7WaO-14">
          <mxGeometry width="50" height="50" relative="1" as="geometry">
            <mxPoint x="790" y="295" as="sourcePoint" />
            <mxPoint x="750" y="70" as="targetPoint" />
            <Array as="points">
              <mxPoint x="750" y="295" />
            </Array>
          </mxGeometry>
        </mxCell>
        <mxCell id="XpaET4Vomy34G-DI7WaO-32" value="" style="endArrow=classic;startArrow=none;html=1;exitX=0.75;exitY=1;exitDx=0;exitDy=0;startFill=0;" edge="1" parent="1" source="XpaET4Vomy34G-DI7WaO-14">
          <mxGeometry width="50" height="50" relative="1" as="geometry">
            <mxPoint x="500" y="260" as="sourcePoint" />
            <mxPoint x="1028" y="400" as="targetPoint" />
            <Array as="points">
              <mxPoint x="658" y="400" />
            </Array>
          </mxGeometry>
        </mxCell>
        <mxCell id="XpaET4Vomy34G-DI7WaO-34" value="" style="rounded=1;whiteSpace=wrap;html=1;" vertex="1" parent="1">
          <mxGeometry x="110" y="1010" width="300" height="480" as="geometry" />
        </mxCell>
        <mxCell id="XpaET4Vomy34G-DI7WaO-36" value="" style="endArrow=classic;startArrow=classic;html=1;exitX=1.004;exitY=0.356;exitDx=0;exitDy=0;exitPerimeter=0;entryX=0.406;entryY=1.001;entryDx=0;entryDy=0;entryPerimeter=0;" edge="1" parent="1" source="XpaET4Vomy34G-DI7WaO-34" target="XpaET4Vomy34G-DI7WaO-16">
          <mxGeometry width="50" height="50" relative="1" as="geometry">
            <mxPoint x="570" y="1180" as="sourcePoint" />
            <mxPoint x="570" y="1280" as="targetPoint" />
            <Array as="points">
              <mxPoint x="570" y="1181" />
            </Array>
          </mxGeometry>
        </mxCell>
        <mxCell id="XpaET4Vomy34G-DI7WaO-38" value="" style="shape=process;whiteSpace=wrap;html=1;backgroundOutline=1;" vertex="1" parent="1">
          <mxGeometry x="145" y="1150" width="230" height="90" as="geometry" />
        </mxCell>
        <mxCell id="XpaET4Vomy34G-DI7WaO-42" value="" style="endArrow=classic;html=1;exitX=0;exitY=0.5;exitDx=0;exitDy=0;" edge="1" parent="1" source="XpaET4Vomy34G-DI7WaO-38">
          <mxGeometry width="50" height="50" relative="1" as="geometry">
            <mxPoint x="750" y="1080" as="sourcePoint" />
            <mxPoint x="-530" y="1200" as="targetPoint" />
          </mxGeometry>
        </mxCell>
        <mxCell id="XpaET4Vomy34G-DI7WaO-43" value="" style="endArrow=classic;startArrow=classic;html=1;exitX=0.5;exitY=0;exitDx=0;exitDy=0;" edge="1" parent="1" source="XpaET4Vomy34G-DI7WaO-17">
          <mxGeometry width="50" height="50" relative="1" as="geometry">
            <mxPoint x="950" y="430" as="sourcePoint" />
            <mxPoint x="611" y="340" as="targetPoint" />
          </mxGeometry>
        </mxCell>
        <mxCell id="XpaET4Vomy34G-DI7WaO-44" value="" style="endArrow=classic;startArrow=classic;html=1;exitX=0;exitY=0.5;exitDx=0;exitDy=0;entryX=0.668;entryY=1;entryDx=0;entryDy=0;entryPerimeter=0;" edge="1" parent="1" source="XpaET4Vomy34G-DI7WaO-15" target="XpaET4Vomy34G-DI7WaO-11">
          <mxGeometry width="50" height="50" relative="1" as="geometry">
            <mxPoint x="740" y="-140" as="sourcePoint" />
            <mxPoint x="790" y="-190" as="targetPoint" />
            <Array as="points">
              <mxPoint x="640" y="25" />
            </Array>
          </mxGeometry>
        </mxCell>
        <mxCell id="XpaET4Vomy34G-DI7WaO-45" value="" style="endArrow=classic;startArrow=classic;html=1;exitX=1;exitY=0.5;exitDx=0;exitDy=0;entryX=0.399;entryY=0.994;entryDx=0;entryDy=0;entryPerimeter=0;" edge="1" parent="1" source="XpaET4Vomy34G-DI7WaO-12" target="XpaET4Vomy34G-DI7WaO-11">
          <mxGeometry width="50" height="50" relative="1" as="geometry">
            <mxPoint x="660" y="-40" as="sourcePoint" />
            <mxPoint x="710" y="-90" as="targetPoint" />
            <Array as="points">
              <mxPoint x="580" y="25" />
            </Array>
          </mxGeometry>
        </mxCell>
        <mxCell id="XpaET4Vomy34G-DI7WaO-48" style="edgeStyle=orthogonalEdgeStyle;rounded=0;orthogonalLoop=1;jettySize=auto;html=1;exitX=0.5;exitY=0;exitDx=0;exitDy=0;entryX=0.5;entryY=1;entryDx=0;entryDy=0;startArrow=block;startFill=1;endArrow=block;endFill=1;" edge="1" parent="1" source="XpaET4Vomy34G-DI7WaO-15" target="XpaET4Vomy34G-DI7WaO-10">
          <mxGeometry relative="1" as="geometry">
            <mxPoint x="834.94" y="-20" as="sourcePoint" />
            <mxPoint x="639.94" y="-780" as="targetPoint" />
            <Array as="points">
              <mxPoint x="775" y="-40" />
              <mxPoint x="810" y="-40" />
              <mxPoint x="810" y="-400" />
              <mxPoint x="950" y="-400" />
            </Array>
          </mxGeometry>
        </mxCell>
      </root>
    </mxGraphModel>
  </diagram>
</mxfile>
